<svg width="360" height="340" viewBox="0 0 360 340" fill="none" xmlns="http://www.w3.org/2000/svg">
<path d="M121.152 36.9203C128.129 46.239 132.781 61.7453 135.227 78.7385C137.758 96.3291 138.213 117.534 135.351 139.734C129.654 183.929 110.502 233.997 65.9958 266.34L50.6025 245.158C87.2863 218.5 104.233 176.313 109.38 136.386C111.94 116.524 111.502 97.7005 109.31 82.4692C108.268 75.233 106.879 69.1944 105.405 64.3939C64.2086 96.4344 46.8823 146.467 57.4781 196.537L31.8618 201.958C18.0393 136.641 44.3166 70.7856 103.735 33.6648L113.941 27.2874L121.152 36.9203Z" fill="white"/>
<path d="M323.596 164.337C312.266 166.658 296.54 164.436 280.411 159.542C263.759 154.488 244.869 146.033 226.572 134.084C190.073 110.245 154.585 71.5242 145.715 16.6313L171.564 12.4543C178.898 57.8445 208.376 90.9257 240.89 112.161C257.1 122.747 273.727 130.148 288.016 134.484C295.782 136.841 302.402 138.15 307.644 138.723C305.381 121.441 295.236 102.525 279.509 85.1963C260.373 64.1128 235.088 47.7977 212.702 41.7923L219.486 16.5032C247.643 24.0567 277.087 43.5686 298.897 67.5991C320.504 91.4053 336.771 122.101 334.006 152.691L333.13 162.385L323.596 164.337Z" fill="white"/>
<path d="M170.107 135.902C198.405 155.005 223.332 173.986 273.338 196.859L272.68 198.301C258.229 228.927 202.796 279.996 124.377 251.802C146.928 216.083 166.985 172.527 170.107 135.902ZM185.829 174.31C179.663 195.489 170.279 216.847 159.715 236.611C180.734 238.678 198.595 233.832 213.031 226.216C223.982 220.439 232.877 213.105 239.547 205.96C217.552 194.698 200.74 184.238 185.829 174.31Z" fill="white"/>
<path d="M326.658 216.094C297.937 279.349 253.946 309.018 208.986 316.9C164.839 324.64 121.306 311.105 92.767 291.022L107.834 269.609C131.38 286.178 167.966 297.508 204.466 291.108C240.153 284.851 277.34 261.376 302.816 205.267L326.658 216.094Z" fill="white"/>
</svg>
