<svg width="368" height="116" viewBox="0 0 368 116" fill="none" xmlns="http://www.w3.org/2000/svg">
<path d="M41.2589 12.5735C43.635 15.747 45.219 21.0277 46.052 26.8148C46.9142 32.8054 47.0689 40.027 46.0943 47.587C44.1541 62.6377 37.6318 79.6888 22.4751 90.7032L17.2329 83.4899C29.7257 74.4112 35.4969 60.0442 37.2497 46.4468C38.1217 39.6829 37.9725 33.2724 37.2259 28.0853C36.8712 25.621 36.398 23.5645 35.8961 21.9297C21.8665 32.8413 15.966 49.8802 19.5744 66.9317L10.8507 68.7779C6.14336 46.5336 15.0922 24.1064 35.3273 11.4648L38.8031 9.29295L41.2589 12.5735Z" fill="white"/>
<path d="M110.203 55.9655C106.344 56.7561 100.989 55.9994 95.4962 54.3326C89.825 52.6115 83.3922 49.7322 77.1611 45.6626C64.731 37.5445 52.6454 24.3578 49.6247 5.66377L58.4277 4.24127C60.9254 19.6991 70.9644 30.965 82.0372 38.1967C87.5572 41.8019 93.2199 44.3223 98.0859 45.799C100.731 46.6017 102.985 47.0473 104.77 47.2426C104 41.3571 100.545 34.9152 95.1888 29.0139C88.672 21.8338 80.0612 16.2776 72.4375 14.2325L74.7477 5.62013C84.3368 8.19254 94.364 14.8374 101.792 23.0211C109.15 31.1284 114.69 41.582 113.748 51.9995L113.45 55.3008L110.203 55.9655Z" fill="white"/>
<path d="M57.9312 46.2822C67.5682 52.7878 76.0573 59.2519 93.0868 67.0415L92.8629 67.5324C87.9413 77.9622 69.0636 95.3539 42.3576 85.7526C50.0374 73.5884 56.868 58.7552 57.9312 46.2822ZM63.2854 59.3623C61.1854 66.5748 57.9897 73.8484 54.3919 80.5791C61.55 81.2831 67.6329 79.6327 72.5492 77.0391C76.2786 75.0716 79.3077 72.5739 81.5792 70.1408C74.0887 66.3055 68.3633 62.7433 63.2854 59.3623Z" fill="white"/>
<path d="M111.245 73.5919C101.464 95.1337 86.483 105.237 71.1718 107.922C56.1374 110.558 41.3119 105.948 31.5928 99.109L36.724 91.8168C44.7427 97.4594 57.2022 101.318 69.6323 99.1384C81.7857 97.0075 94.4498 89.0128 103.126 69.9047L111.245 73.5919Z" fill="white"/>
<path d="M153.275 47.9524V43.1581H171.34V47.9524H153.275ZM166.233 27.3855L178.428 53.4415H172.139L161.474 29.7827H163.419L152.754 53.4415H146.466L158.66 27.3855H166.233ZM185.959 42.0116C185.959 43.4013 186.226 44.5941 186.758 45.59C187.291 46.5859 188.067 47.3618 189.086 47.9176C190.128 48.4504 191.379 48.7167 192.838 48.7167C194.32 48.7167 195.571 48.4504 196.59 47.9176C197.609 47.3618 198.385 46.5859 198.918 45.59C199.45 44.5941 199.717 43.4013 199.717 42.0116V27.3855H205.623V42.2895C205.623 44.6288 205.09 46.6785 204.025 48.4388C202.959 50.1758 201.465 51.5308 199.543 52.5035C197.621 53.4763 195.386 53.9626 192.838 53.9626C190.29 53.9626 188.055 53.4763 186.133 52.5035C184.234 51.5308 182.74 50.1758 181.651 48.4388C180.586 46.6785 180.053 44.6288 180.053 42.2895V27.3855H185.959V42.0116ZM214.173 38.4333H233.003V43.4708H214.173V38.4333ZM233.594 27.3855V32.4577H214.243L217.231 29.4352V53.4415H211.325V27.3855H233.594ZM240.279 47.9524V43.1581H258.345V47.9524H240.279ZM253.238 27.3855L265.432 53.4415H259.144L248.478 29.7827H250.423L239.758 53.4415H233.47L245.664 27.3855H253.238ZM268.931 27.3855H274.837V53.4415H268.931V27.3855ZM289.159 30.0258H295.031V53.4415H289.159V30.0258ZM278.772 27.3855H305.384V32.5967H278.772V27.3855ZM147.178 79.8023H151.137C151.229 80.3854 151.483 80.8994 151.897 81.3444C152.327 81.7741 152.894 82.1117 153.6 82.3572C154.321 82.5874 155.15 82.7025 156.086 82.7025C157.452 82.7025 158.526 82.5106 159.308 82.127C160.106 81.728 160.505 81.1756 160.505 80.4698C160.505 79.9173 160.275 79.4954 159.815 79.2038C159.37 78.8969 158.534 78.6744 157.306 78.5363L153.83 78.145C151.59 77.8995 149.963 77.3778 148.951 76.5798C147.953 75.7665 147.455 74.6387 147.455 73.1963C147.455 72.0607 147.784 71.094 148.444 70.2961C149.119 69.4981 150.063 68.892 151.275 68.4777C152.488 68.048 153.915 67.8332 155.557 67.8332C157.153 67.8332 158.572 68.071 159.815 68.5467C161.058 69.0071 162.048 69.6592 162.784 70.5032C163.521 71.3318 163.92 72.3062 163.981 73.4264H160.022C159.945 72.92 159.715 72.4827 159.332 72.1144C158.963 71.7308 158.449 71.4393 157.789 71.2398C157.13 71.0249 156.355 70.9175 155.465 70.9175C154.222 70.9175 153.232 71.1017 152.495 71.4699C151.759 71.8382 151.39 72.36 151.39 73.0351C151.39 73.5569 151.605 73.9635 152.035 74.2551C152.48 74.5313 153.255 74.7384 154.36 74.8765L157.973 75.3139C159.569 75.4827 160.835 75.7589 161.771 76.1425C162.723 76.5108 163.398 77.0095 163.797 77.6386C164.211 78.2678 164.418 79.0657 164.418 80.0324C164.418 81.1833 164.065 82.1961 163.36 83.0707C162.669 83.9301 161.695 84.5976 160.436 85.0732C159.178 85.5489 157.705 85.7868 156.017 85.7868C154.298 85.7868 152.787 85.5413 151.483 85.0502C150.178 84.5438 149.15 83.8457 148.398 82.9556C147.646 82.0503 147.24 80.9992 147.178 79.8023ZM171.191 77.8688C171.191 78.7895 171.368 79.5798 171.72 80.2396C172.073 80.8994 172.587 81.4135 173.263 81.7818C173.953 82.1347 174.782 82.3112 175.749 82.3112C176.731 82.3112 177.559 82.1347 178.234 81.7818C178.91 81.4135 179.424 80.8994 179.777 80.2396C180.129 79.5798 180.306 78.7895 180.306 77.8688V68.1785H184.219V78.0529C184.219 79.6028 183.866 80.9608 183.16 82.127C182.454 83.2779 181.465 84.1756 180.191 84.8201C178.917 85.4645 177.436 85.7868 175.749 85.7868C174.061 85.7868 172.58 85.4645 171.306 84.8201C170.048 84.1756 169.058 83.2779 168.337 82.127C167.631 80.9608 167.278 79.6028 167.278 78.0529V68.1785H171.191V77.8688ZM197.411 68.1785C198.776 68.1785 199.958 68.4163 200.955 68.892C201.953 69.3677 202.712 70.0352 203.234 70.8945C203.771 71.7538 204.04 72.7513 204.04 73.8868C204.04 75.0223 203.771 76.0197 203.234 76.879C202.712 77.723 201.953 78.3905 200.955 78.8816C199.958 79.3573 198.776 79.5951 197.411 79.5951H189.792V76.3727H197.203C198.109 76.3727 198.815 76.1502 199.321 75.7052C199.843 75.2602 200.104 74.654 200.104 73.8868C200.104 73.1042 199.843 72.4981 199.321 72.0684C198.815 71.6234 198.109 71.4009 197.203 71.4009H190.137L191.909 69.5365V85.4415H187.996V68.1785H197.411ZM221.002 75.3139V78.3061H208.642V75.3139H221.002ZM211.266 76.81L210.115 84.1295L208.412 82.1961H221.716V85.4415H206.179L207.514 76.81L206.179 68.1785H221.601V71.4239H208.412L210.115 69.4905L211.266 76.81ZM227.868 75.8433H234.52C235.394 75.8433 236.085 75.6438 236.591 75.2448C237.113 74.8305 237.374 74.2627 237.374 73.5415C237.374 72.8203 237.113 72.2602 236.591 71.8612C236.085 71.4623 235.394 71.2628 234.52 71.2628H227.292L229.065 69.2603V85.4415H225.152V68.1785H234.98C236.238 68.1785 237.343 68.4086 238.295 68.869C239.246 69.314 239.99 69.9355 240.527 70.7334C241.064 71.5313 241.333 72.4674 241.333 73.5415C241.333 74.6003 241.064 75.5287 240.527 76.3266C239.99 77.1246 239.246 77.7537 238.295 78.2141C237.343 78.6591 236.238 78.8816 234.98 78.8816H227.868V75.8433ZM230.86 77.3624H235.325L241.839 85.4415H237.259L230.86 77.3624ZM254.981 68.1785V83.7152L253.208 81.9889H266.167V85.4415H251.068V68.1785H254.981ZM283.085 75.3139V78.3061H270.724V75.3139H283.085ZM273.348 76.81L272.197 84.1295L270.494 82.1961H283.798V85.4415H268.261L269.596 76.81L268.261 68.1785H283.683V71.4239H270.494L272.197 69.4905L273.348 76.81ZM289.728 81.8048V78.6284H301.697V81.8048H289.728ZM298.313 68.1785L306.393 85.4415H302.226L295.16 69.7667H296.449L289.383 85.4415H285.217L293.296 68.1785H298.313ZM325.192 77.9609C325.177 79.0043 324.97 80.0017 324.571 80.9531C324.187 81.8892 323.635 82.7255 322.914 83.462C322.192 84.1832 321.302 84.751 320.244 85.1653C319.185 85.5796 317.957 85.7868 316.561 85.7868C315.21 85.7868 313.945 85.5873 312.763 85.1883C311.597 84.774 310.569 84.1832 309.679 83.416C308.804 82.6487 308.121 81.7127 307.63 80.6079C307.139 79.4877 306.894 78.2217 306.894 76.81C306.894 75.3983 307.139 74.14 307.63 73.0351C308.136 71.915 308.835 70.9712 309.725 70.204C310.615 69.4367 311.658 68.8536 312.855 68.4547C314.052 68.0404 315.356 67.8332 316.768 67.8332C318.609 67.8332 320.205 68.1247 321.556 68.7079C322.906 69.2756 323.995 70.0659 324.824 71.0787C325.668 72.0914 326.19 73.25 326.389 74.5543H322.453C322.3 73.8484 321.962 73.2423 321.441 72.7359C320.934 72.2295 320.282 71.8382 319.484 71.562C318.701 71.2858 317.796 71.1477 316.768 71.1477C315.556 71.1477 314.505 71.3702 313.615 71.8152C312.74 72.2449 312.057 72.8817 311.566 73.7257C311.09 74.5696 310.853 75.5977 310.853 76.81C310.853 78.0222 311.106 79.058 311.612 79.9173C312.118 80.7767 312.84 81.4365 313.776 81.8968C314.712 82.3418 315.817 82.5643 317.09 82.5643C318.333 82.5643 319.423 82.3725 320.359 81.9889C321.295 81.5899 322.031 81.0375 322.568 80.3317C323.121 79.6104 323.435 78.7588 323.512 77.7767L325.192 77.9609ZM317.62 79.5491V76.7179H326.573V85.4415H323.765L323.236 78.4442L324.042 79.5491H317.62ZM333.849 77.8688C333.849 78.7895 334.025 79.5798 334.378 80.2396C334.731 80.8994 335.245 81.4135 335.92 81.7818C336.611 82.1347 337.439 82.3112 338.406 82.3112C339.388 82.3112 340.217 82.1347 340.892 81.7818C341.567 81.4135 342.081 80.8994 342.434 80.2396C342.787 79.5798 342.964 78.7895 342.964 77.8688V68.1785H346.877V78.0529C346.877 79.6028 346.524 80.9608 345.818 82.127C345.112 83.2779 344.122 84.1756 342.849 84.8201C341.575 85.4645 340.094 85.7868 338.406 85.7868C336.718 85.7868 335.237 85.4645 333.964 84.8201C332.706 84.1756 331.716 83.2779 330.995 82.127C330.289 80.9608 329.936 79.6028 329.936 78.0529V68.1785H333.849V77.8688ZM364.925 75.3139V78.3061H352.565V75.3139H364.925ZM355.189 76.81L354.038 84.1295L352.334 82.1961H365.639V85.4415H350.102L351.437 76.81L350.102 68.1785H365.523V71.4239H352.334L354.038 69.4905L355.189 76.81Z" fill="white"/>
</svg>