<svg width="103" height="150" viewBox="0 0 103 150" fill="none" xmlns="http://www.w3.org/2000/svg">
<path d="M34.6247 10.5517C36.6187 13.2149 37.948 17.6465 38.6471 22.5031C39.3707 27.5304 39.5004 33.5908 38.6826 39.9353C37.0543 52.5659 31.5808 66.8752 18.8613 76.1186L14.4619 70.0651C24.946 62.4462 29.7892 50.3894 31.2602 38.9784C31.9919 33.302 31.8667 27.9224 31.2401 23.5693C30.9425 21.5012 30.5454 19.7754 30.1242 18.4035C18.3505 27.5605 13.3987 41.8597 16.4269 56.1694L9.10596 57.7187C5.15554 39.0512 12.6655 20.2302 29.6469 9.62126L32.5638 7.79865L34.6247 10.5517Z" fill="white"/>
<path d="M92.4824 46.9666C89.2443 47.6301 84.7499 46.9951 80.1405 45.5963C75.3812 44.1519 69.9828 41.7356 64.7537 38.3204C54.3223 31.5076 44.1799 20.4413 41.6449 4.75316L49.0325 3.55939C51.1286 16.5317 59.5533 25.9861 68.8457 32.055C73.4781 35.0805 78.2302 37.1956 82.3138 38.4349C84.5333 39.1085 86.4254 39.4825 87.9235 39.6464C87.2768 34.7072 84.3774 29.3011 79.8826 24.3487C74.4137 18.3231 67.1874 13.6604 60.7896 11.9441L62.7283 4.71654C70.7756 6.87532 79.1904 12.4517 85.4237 19.3195C91.5988 26.1232 96.2479 34.8959 95.4577 43.6384L95.2072 46.4088L92.4824 46.9666Z" fill="white"/>
<path d="M48.6156 38.8401C56.703 44.2997 63.827 49.7244 78.1183 56.2614L77.9304 56.6734C73.8002 65.4261 57.9579 80.0214 35.5461 71.9639C41.9911 61.7556 47.7233 49.3075 48.6156 38.8401ZM53.1089 49.817C51.3465 55.8698 48.6647 61.9738 45.6454 67.6223C51.6525 68.2131 56.7572 66.828 60.883 64.6514C64.0128 63.0003 66.5548 60.9042 68.4611 58.8624C62.175 55.6437 57.3702 52.6544 53.1089 49.817Z" fill="white"/>
<path d="M93.3565 61.7585C85.1482 79.8365 72.5758 88.3157 59.7265 90.5685C47.1096 92.7805 34.668 88.9122 26.5116 83.1727L30.8178 77.053C37.5471 81.7883 48.0032 85.0262 58.4346 83.1973C68.6338 81.4091 79.2615 74.6998 86.5424 58.6643L93.3565 61.7585Z" fill="white"/>
<path d="M14.9496 133.398V128.604H33.0121V133.398H14.9496ZM27.906 112.834L40.0982 138.886H33.811L23.1472 115.231H25.0924L14.4285 138.886H8.14138L20.3336 112.834H27.906ZM40.9188 130.376H46.8933C47.0323 131.256 47.4143 132.031 48.0396 132.703C48.688 133.351 49.5448 133.861 50.61 134.231C51.6984 134.579 52.9489 134.752 54.3615 134.752C56.4225 134.752 58.0434 134.463 59.2245 133.884C60.4286 133.282 61.0307 132.448 61.0307 131.383C61.0307 130.549 60.6834 129.913 59.9886 129.473C59.3171 129.009 58.055 128.674 56.2025 128.465L50.9574 127.875C47.5764 127.504 45.1218 126.717 43.5934 125.513C42.0882 124.285 41.3356 122.583 41.3356 120.407C41.3356 118.693 41.8335 117.234 42.8292 116.03C43.8482 114.826 45.2723 113.911 47.1017 113.286C48.9311 112.637 51.0847 112.313 53.5626 112.313C55.9709 112.313 58.1129 112.672 59.9886 113.39C61.8644 114.085 63.358 115.069 64.4695 116.343C65.5811 117.593 66.1832 119.063 66.2758 120.754H60.3013C60.1855 119.99 59.8381 119.33 59.2592 118.774C58.7034 118.195 57.9277 117.755 56.9319 117.454C55.9362 117.13 54.7667 116.968 53.4236 116.968C51.5479 116.968 50.0543 117.246 48.9427 117.801C47.8312 118.357 47.2754 119.145 47.2754 120.163C47.2754 120.951 47.5996 121.564 48.248 122.004C48.9196 122.421 50.089 122.734 51.7563 122.942L57.2098 123.602C59.6181 123.857 61.5286 124.274 62.9412 124.853C64.3769 125.409 65.3958 126.161 65.9979 127.111C66.6231 128.06 66.9358 129.264 66.9358 130.723C66.9358 132.46 66.4032 133.988 65.3379 135.308C64.2959 136.605 62.8254 137.612 60.9265 138.33C59.0276 139.048 56.8045 139.407 54.2573 139.407C51.6637 139.407 49.3827 139.036 47.4143 138.295C45.446 137.531 43.8945 136.478 42.7598 135.134C41.6251 133.768 41.0114 132.182 40.9188 130.376ZM77.5038 112.834V136.281L74.8292 133.676H94.3853V138.886H71.5987V112.834H77.5038Z" fill="white"/>
</svg>